<svg width="28" height="28" viewBox="0 0 28 28" fill="none" xmlns="http://www.w3.org/2000/svg">
<path d="M19.4026 15.3195C19.3367 15.3872 19.0878 15.6765 18.8559 15.9145C17.4966 17.4113 13.9506 19.8613 12.0946 20.6092C11.8127 20.7293 11.1001 20.9837 10.7194 21C10.3545 21 10.0067 20.916 9.67487 20.7457C9.26117 20.5077 8.9293 20.1332 8.74745 19.691C8.63038 19.3842 8.44854 18.466 8.44854 18.4497C8.26669 17.4452 8.16667 15.813 8.16667 14.0093C8.16667 12.2908 8.26669 10.7252 8.41558 9.7055C8.43262 9.68917 8.61447 8.54817 8.81337 8.15733C9.1782 7.44333 9.89082 7 10.6534 7H10.7194C11.216 7.0175 12.2605 7.46083 12.2605 7.47717C14.0165 8.22617 17.4807 10.556 18.873 12.1042C18.873 12.1042 19.2651 12.502 19.4355 12.7505C19.7015 13.1075 19.8333 13.5497 19.8333 13.9918C19.8333 14.4853 19.6845 14.945 19.4026 15.3195Z" fill="#FB9C46"/>
</svg>
