<svg width="29" height="29" viewBox="0 0 29 29" fill="none" xmlns="http://www.w3.org/2000/svg">
<g id="Calendar">
<g id="Iconly/Bold/Calendar">
<g id="Calendar_2">
<path id="Vector" d="M18.91 2.41667C19.423 2.41547 19.8286 2.81402 19.8298 3.34542L19.831 4.25122C23.1595 4.51209 25.3583 6.7802 25.3619 10.2585L25.375 20.4396C25.3798 24.2319 22.9973 26.5652 19.1784 26.5712L9.8502 26.5833C6.0552 26.5882 3.64291 24.1993 3.63814 20.3961L3.62501 10.3345C3.62024 6.83334 5.74144 4.57126 9.06997 4.26571L9.06877 3.35991C9.06758 2.82851 9.46128 2.42875 9.98621 2.42875C10.5111 2.42755 10.9048 2.8261 10.906 3.3575L10.9072 4.20291L17.9938 4.19325L17.9926 3.34784C17.9914 2.81644 18.3851 2.41788 18.91 2.41667ZM19.3968 19.5652H19.3848C18.836 19.5785 18.3958 20.0386 18.4077 20.5942C18.4089 21.1498 18.8515 21.6075 19.4003 21.6196C19.9599 21.6184 20.4132 21.1582 20.412 20.5906C20.412 20.0229 19.9575 19.5652 19.3968 19.5652ZM9.56626 19.5664C9.01747 19.5906 8.58798 20.0507 8.58917 20.6063C8.61423 21.1618 9.06758 21.5966 9.61637 21.5713C10.1544 21.5471 10.5827 21.087 10.5577 20.5314C10.5457 19.9879 10.1031 19.5652 9.56626 19.5664ZM14.4815 19.5604C13.9327 19.5857 13.5044 20.0447 13.5044 20.6002C13.5295 21.1558 13.9828 21.5894 14.5316 21.5652C15.0685 21.5399 15.498 21.0809 15.4729 20.5242C15.461 19.9819 15.0184 19.5592 14.4815 19.5604ZM9.5603 15.2186C9.01151 15.2428 8.58321 15.7029 8.5844 16.2585C8.60827 16.814 9.06281 17.2488 9.6116 17.2234C10.1485 17.1993 10.5768 16.7391 10.5517 16.1836C10.5398 15.6401 10.0983 15.2174 9.5603 15.2186ZM14.4767 15.1763C13.9279 15.2005 13.4985 15.6606 13.4997 16.2162C13.5235 16.7717 13.9781 17.2053 14.5268 17.1812C15.0637 17.1558 15.492 16.6969 15.4681 16.1413C15.455 15.5978 15.0136 15.1751 14.4767 15.1763ZM19.392 15.1824C18.8432 15.1944 18.4137 15.6413 18.4149 16.1969V16.2101C18.4268 16.7657 18.8802 17.1872 19.4302 17.1751C19.967 17.1618 20.3953 16.7017 20.3834 16.1461C20.3583 15.6147 19.9277 15.1812 19.392 15.1824ZM17.9962 6.05315L10.9096 6.06281L10.9108 7.03986C10.9108 7.56039 10.5183 7.97102 9.99336 7.97102C9.46843 7.97223 9.07354 7.56281 9.07354 7.04228L9.07235 6.11233C6.74596 6.34542 5.45869 7.71257 5.46226 10.3321L5.46346 10.7077L23.5258 10.6836V10.2609C23.4745 7.66426 22.1717 6.30194 19.8334 6.09904L19.8346 7.02899C19.8346 7.54832 19.4302 7.96015 18.9172 7.96015C18.3922 7.96136 17.9973 7.55073 17.9973 7.03141L17.9962 6.05315Z" fill="white"/>
</g>
</g>
</g>
</svg>
