<svg width="54" height="53" viewBox="0 0 54 53" fill="none" xmlns="http://www.w3.org/2000/svg">
<mask id="mask0_1040_675" style="mask-type:alpha" maskUnits="userSpaceOnUse" x="0" y="0" width="54" height="53">
<ellipse cx="26.7849" cy="26.5" rx="26.7849" ry="26.5" fill="#C4C4C4"/>
</mask>
<g mask="url(#mask0_1040_675)">
<path d="M-8 -1H72V59H-8V-1Z" fill="#DE2910"/>
<path d="M1.59996 21.2L6.99989 5L12.3998 21.2L-2 11.3H15.9998L1.59996 21.2Z" fill="#FFDE00"/>
<path d="M25.0214 5.31045L19.4642 6.54197L23.171 2.22239L22.8075 8.03598L19.7235 2.8892L25.0214 5.31045Z" fill="#FFDE00"/>
<path d="M30.63 12.4184L25.0302 11.3982L30.1221 8.85437L27.5323 14.0719L26.6859 8.13192L30.63 12.4184Z" fill="#FFDE00"/>
<path d="M29.8125 22.3905L25.1157 19.1751L30.8024 18.9293L26.3098 22.6369L27.9596 16.8681L29.8125 22.3905Z" fill="#FFDE00"/>
<path d="M22.7486 28.9051L19.6581 24.1251L24.9985 26.0948L19.4225 27.7795L23.1723 23.0956L22.7486 28.9051Z" fill="#FFDE00"/>
</g>
</svg>
